<?xml version="1.0" encoding="windows-1252"?>
<svg xmlns="http://www.w3.org/2000/svg" version="1.1" width="400" height="400" fill="black" fill_rule="evenodd" stroke="none">
	<path d="M 310.400, 212.800 320.480, 212.800 344.000, 164.800 367.520, 212.800 377.600, 212.800 344.000, 145.600 310.400, 212.800 z" fill_rule="evenodd" stroke="none"/>
	<path d="M 258.788, 201.500 258.157, 201.817 257.511, 202.104 256.851, 202.358 256.180, 202.580 255.499, 202.768 254.809, 202.923 254.113, 203.044 253.411, 203.131 252.707, 203.183 252.000, 203.200 251.293, 203.183 250.589, 203.131 249.887, 203.044 249.191, 202.923 248.501, 202.768 247.820, 202.580 247.149, 202.358 246.489, 202.104 245.843, 201.817 245.212, 201.500 244.597, 201.151 244.000, 200.773 243.422, 200.366 242.865, 199.931 242.330, 199.470 241.818, 198.982 241.330, 198.470 240.869, 197.935 240.434, 197.378 240.027, 196.800 239.649, 196.203 239.300, 195.588 238.983, 194.957 238.696, 194.311 238.442, 193.651 238.220, 192.980 238.032, 192.299 237.877, 191.609 237.756, 190.913 237.669, 190.211 237.617, 189.507 237.617, 146.071 237.600, 145.364 228.000, 145.364 228.000, 188.800 228.029, 189.978 228.116, 191.152 228.260, 192.322 228.461, 193.482 228.719, 194.632 229.033, 195.767 229.403, 196.885 229.827, 197.984 230.304, 199.061 230.834, 200.114 231.415, 201.138 232.045, 202.134 232.723, 203.097 233.448, 204.025 234.217, 204.917 235.029, 205.771 235.883, 206.583 236.775, 207.352 237.703, 208.077 238.666, 208.755 239.662, 209.385 240.686, 209.966 241.739, 210.496 242.816, 210.973 243.915, 211.397 245.033, 211.767 246.168, 212.081 247.318, 212.339 248.478, 212.540 249.648, 212.684 250.822, 212.771 252.000, 212.800 253.178, 212.771 254.352, 212.684 255.522, 212.540 256.682, 212.339 257.832, 212.081 258.967, 211.767 260.085, 211.397 261.184, 210.973 262.261, 210.496 263.314, 209.966 264.338, 209.385 265.334, 208.755 266.297, 208.077 267.225, 207.352 268.117, 206.583 268.971, 205.771 269.783, 204.917 270.552, 204.025 271.277, 203.097 271.955, 202.134 272.585, 201.138 273.166, 200.114 273.696, 199.061 274.173, 197.984 274.597, 196.885 274.967, 195.767 275.281, 194.632 275.539, 193.482 275.740, 192.322 275.884, 191.152 275.971, 189.978 276.000, 188.800 276.000, 145.364 266.400, 145.364 266.383, 146.071 266.383, 189.507 266.331, 190.211 266.244, 190.913 266.123, 191.609 265.968, 192.299 265.780, 192.980 265.558, 193.651 265.304, 194.311 265.017, 194.957 264.700, 195.588 264.351, 196.203 263.973, 196.800 263.566, 197.378 263.131, 197.935 262.670, 198.470 262.182, 198.982 261.670, 199.470 261.135, 199.931 260.578, 200.366 260.000, 200.773 259.403, 201.151 258.788, 201.500 z"/>
	<path d="M 22.400, 212.800 32.480, 212.800 56.000, 164.800 79.520, 212.800 89.600, 212.800 56.000, 145.600 22.400, 212.800 z"/>
	<path d="M 128.108, 136.000 74.369, 136.000 26.795, 53.600 373.205, 53.600 325.631, 136.000 271.892, 136.000 292.595, 100.140 107.405, 100.140 128.108, 136.000 200.000, 353.600 132.796, 237.200 186.536, 237.200 200.000, 260.520 213.464, 237.200 267.204, 237.200 200.000, 353.600 z"/>
	<path d="M 148.000, 212.800 146.351, 212.760 144.707, 212.638 143.070, 212.436 141.445, 212.154 139.836, 211.793 138.246, 211.353 136.681, 210.836 135.142, 210.242 133.634, 209.574 132.161, 208.833 130.726, 208.020 129.333, 207.137 127.985, 206.188 126.684, 205.173 125.436, 204.096 124.241, 202.959 123.104, 201.764 122.027, 200.516 121.012, 199.215 120.063, 197.867 119.180, 196.474 118.367, 195.039 117.626, 193.566 116.958, 192.058 116.364, 190.520 115.847, 188.954 115.407, 187.364 115.046, 185.755 114.764, 184.130 114.562, 182.493 114.440, 180.849 114.400, 179.200 114.440, 177.551 114.562, 175.907 114.764, 174.270 115.046, 172.645 115.407, 171.036 115.847, 169.446 116.364, 167.881 116.958, 166.342 117.626, 164.834 118.367, 163.361 119.180, 161.926 120.063, 160.533 121.012, 159.185 122.027, 157.884 123.104, 156.636 124.241, 155.441 125.436, 154.304 126.684, 153.227 127.985, 152.212 129.333, 151.263 130.726, 150.380 132.161, 149.567 133.634, 148.826 135.142, 148.158 136.680, 147.564 138.246, 147.047 139.836, 146.607 141.445, 146.246 143.070, 145.964 144.707, 145.762 146.351, 145.640 148.000, 145.600 149.649, 145.640 151.293, 145.762 152.930, 145.964 154.555, 146.246 156.164, 146.607 157.754, 147.047 159.320, 147.564 160.858, 148.158 162.366, 148.826 163.839, 149.567 165.274, 150.380 166.667, 151.263 168.016, 152.212 169.316, 153.227 170.564, 154.304 171.759, 155.441 172.896, 156.636 173.973, 157.884 174.988, 159.185 175.937, 160.533 176.820, 161.926 177.633, 163.361 178.374, 164.834 179.042, 166.342 179.636, 167.880 180.153, 169.446 180.593, 171.036 180.954, 172.645 181.236, 174.270 181.438, 175.907 181.560, 177.551 181.600, 179.200 181.560, 180.849 181.438, 182.493 181.236, 184.130 180.954, 185.755 180.593, 187.364 180.153, 188.954 179.636, 190.520 179.042, 192.058 178.374, 193.566 177.633, 195.039 176.820, 196.474 175.937, 197.867 174.988, 199.215 173.973, 200.516 172.896, 201.764 171.759, 202.959 181.600, 202.959 181.600, 204.096 181.600, 205.173 181.600, 206.188 181.600, 207.137 181.600, 208.020 181.600, 208.833 181.600, 209.574 181.600, 210.242 181.600, 210.836 181.600, 211.353 181.600, 211.793 181.600, 212.154 181.600, 212.436 181.600, 212.638 181.600, 212.760 181.600, 212.800 148.000, 212.800 148.000, 203.318 149.183, 203.289 150.364, 203.202 151.539, 203.057 152.705, 202.855 153.860, 202.595 155.001, 202.280 156.125, 201.908 157.230, 201.482 158.312, 201.003 159.369, 200.470 160.399, 199.887 161.399, 199.253 162.367, 198.572 163.300, 197.844 164.197, 197.070 165.054, 196.254 165.870, 195.397 166.644, 194.500 167.372, 193.567 168.053, 192.599 168.687, 191.599 169.270, 190.569 169.803, 189.512 170.282, 188.430 170.708, 187.325 171.080, 186.201 171.395, 185.060 171.655, 183.905 171.857, 182.739 172.002, 181.564 172.089, 180.383 172.118, 179.200 172.089, 178.017 172.002, 176.836 171.857, 175.661 171.655, 174.495 171.395, 173.340 171.080, 172.199 170.708, 171.075 170.282, 169.970 169.803, 168.888 169.270, 167.831 168.687, 166.801 168.053, 165.801 167.372, 164.833 166.644, 163.900 165.870, 163.003 165.054, 162.146 164.197, 161.330 163.300, 160.556 162.367, 159.828 161.399, 159.147 160.399, 158.513 159.369, 157.930 158.312, 157.398 157.230, 156.918 156.125, 156.492 155.001, 156.120 153.860, 155.805 152.705, 155.545 151.539, 155.343 150.364, 155.198 149.183, 155.111 148.000, 155.082 146.817, 155.111 145.636, 155.198 144.461, 155.343 143.295, 155.545 142.140, 155.805 140.999, 156.120 139.875, 156.492 138.770, 156.918 137.688, 157.398 136.631, 157.930 135.601, 158.513 134.601, 159.147 133.633, 159.828 132.700, 160.556 131.803, 161.330 130.946, 162.146 130.130, 163.003 129.356, 163.900 128.628, 164.833 127.947, 165.801 127.313, 166.801 126.730, 167.831 126.198, 168.888 125.718, 169.970 125.292, 171.075 124.920, 172.199 124.605, 173.340 124.345, 174.495 124.143, 175.661 123.998, 176.836 123.911, 178.017 123.882, 179.200 123.911, 180.383 123.998, 181.564 124.143, 182.739 124.345, 183.905 124.605, 185.060 124.920, 186.201 125.292, 187.325 125.718, 188.430 126.198, 189.512 126.730, 190.569 127.313, 191.599 127.947, 192.599 128.628, 193.567 129.356, 194.500 130.130, 195.397 130.946, 196.254 131.803, 197.070 132.700, 197.844 133.633, 198.572 134.601, 199.253 135.601, 199.887 136.631, 200.470 137.688, 201.003 138.770, 201.482 139.875, 201.908 140.999, 202.280 142.140, 202.595 143.295, 202.855 144.461, 203.057 145.636, 203.202 146.817, 203.289 148.000, 203.318 z"/>
</svg>